{
    "asset" : {
        "generator" : "Khronos glTF Blender I/O v0.9.36",
        "version" : "2.0"
    },
    "scene" : 0,
    "scenes" : [
        {
            "name" : "Scene",
            "nodes" : [
                0,
                1,
                2,
                3
            ]
        }
    ],
    "nodes" : [
        {
            "mesh" : 0,
            "name" : "root.001",
            "rotation" : [
                0.7071068286895752,
                0,
                0,
                0.7071067094802856
            ],
            "translation" : [
                1.498509407043457,
                1.2587306499481201,
                0.0904776006937027
            ]
        },
        {
            "mesh" : 1,
            "name" : "root.004",
            "rotation" : [
                0.7071068286895752,
                0,
                0,
                0.7071067094802856
            ],
            "translation" : [
                1.5537153482437134,
                1.5637762546539307,
                0.16942928731441498
            ]
        },
        {
            "mesh" : 2,
            "name" : "root.000",
            "rotation" : [
                0.7071068286895752,
                0,
                0,
                0.7071067094802856
            ],
            "translation" : [
                1.44301438331604,
                0.5542688369750977,
                0.09438297897577286
            ]
        },
        {
            "mesh" : 3,
            "name" : "root.002",
            "rotation" : [
                0.7071068286895752,
                0,
                0,
                0.7071067094802856
            ],
            "translation" : [
                1.6574784517288208,
                1.2146354913711548,
                0.08800017833709717
            ]
        }
    ],
    "materials" : [
        {
            "name" : "Color A08",
            "pbrMetallicRoughness" : {
                "baseColorFactor" : [
                    0.017000000923871994,
                    0.017000000923871994,
                    0.017000000923871994,
                    1
                ],
                "metallicFactor" : 0.10000000149011612,
                "roughnessFactor" : 0.8999999761581421
            }
        },
        {
            "name" : "Color A01",
            "pbrMetallicRoughness" : {
                "baseColorFactor" : [
                    0.2757999897003174,
                    0.2757999897003174,
                    0.2757999897003174,
                    1
                ],
                "metallicFactor" : 0.10000000149011612,
                "roughnessFactor" : 0.8999999761581421
            }
        },
        {
            "name" : "Color A02",
            "pbrMetallicRoughness" : {
                "baseColorFactor" : [
                    0.2549000084400177,
                    0.08460000157356262,
                    0.08460000157356262,
                    1
                ],
                "metallicFactor" : 0.10000000149011612,
                "roughnessFactor" : 0.8999999761581421
            }
        },
        {
            "name" : "[Color A02]1",
            "pbrMetallicRoughness" : {
                "baseColorFactor" : [
                    0.14800000190734863,
                    0.017000000923871994,
                    0.017000000923871994,
                    1
                ],
                "metallicFactor" : 0.10000000149011612,
                "roughnessFactor" : 0.8999999761581421
            }
        },
        {
            "name" : "Color A04",
            "pbrMetallicRoughness" : {
                "baseColorFactor" : [
                    0.05999999865889549,
                    0.0005000000237487257,
                    0.0005000000237487257,
                    1
                ],
                "metallicFactor" : 0.10000000149011612,
                "roughnessFactor" : 0.8999999761581421
            }
        }
    ],
    "meshes" : [
        {
            "name" : "Mesh_0.001",
            "primitives" : [
                {
                    "attributes" : {
                        "POSITION" : 0,
                        "NORMAL" : 1
                    },
                    "indices" : 2,
                    "material" : 0
                },
                {
                    "attributes" : {
                        "POSITION" : 3,
                        "NORMAL" : 4
                    },
                    "indices" : 5,
                    "material" : 1
                },
                {
                    "attributes" : {
                        "POSITION" : 6,
                        "NORMAL" : 7
                    },
                    "indices" : 8,
                    "material" : 2
                },
                {
                    "attributes" : {
                        "POSITION" : 9,
                        "NORMAL" : 10
                    },
                    "indices" : 11,
                    "material" : 3
                },
                {
                    "attributes" : {
                        "POSITION" : 12,
                        "NORMAL" : 13
                    },
                    "indices" : 14,
                    "material" : 4
                }
            ]
        },
        {
            "name" : "Mesh_0.004",
            "primitives" : [
                {
                    "attributes" : {
                        "POSITION" : 15,
                        "NORMAL" : 16
                    },
                    "indices" : 17,
                    "material" : 3
                },
                {
                    "attributes" : {
                        "POSITION" : 18,
                        "NORMAL" : 19
                    },
                    "indices" : 20,
                    "material" : 4
                }
            ]
        },
        {
            "name" : "Mesh_0.009",
            "primitives" : [
                {
                    "attributes" : {
                        "POSITION" : 21,
                        "NORMAL" : 22,
                        "TEXCOORD_0" : 23
                    },
                    "indices" : 24,
                    "material" : 0
                },
                {
                    "attributes" : {
                        "POSITION" : 25,
                        "NORMAL" : 26,
                        "TEXCOORD_0" : 27
                    },
                    "indices" : 28,
                    "material" : 1
                }
            ]
        },
        {
            "name" : "Mesh_0.012",
            "primitives" : [
                {
                    "attributes" : {
                        "POSITION" : 29,
                        "NORMAL" : 30
                    },
                    "indices" : 31,
                    "material" : 0
                }
            ]
        }
    ],
    "accessors" : [
        {
            "bufferView" : 0,
            "componentType" : 5126,
            "count" : 1974,
            "max" : [
                0.6734466552734375,
                0.07452259212732315,
                0.33315277099609375
            ],
            "min" : [
                -1.014830231666565,
                -0.07947741448879242,
                -0.5235410928726196
            ],
            "type" : "VEC3"
        },
        {
            "bufferView" : 1,
            "componentType" : 5126,
            "count" : 1974,
            "type" : "VEC3"
        },
        {
            "bufferView" : 2,
            "componentType" : 5123,
            "count" : 4230,
            "type" : "SCALAR"
        },
        {
            "bufferView" : 3,
            "componentType" : 5126,
            "count" : 223,
            "max" : [
                0.05535268783569336,
                0.0635225847363472,
                0.29221975803375244
            ],
            "min" : [
                -0.08053255081176758,
                -0.06847741454839706,
                -0.04629623889923096
            ],
            "type" : "VEC3"
        },
        {
            "bufferView" : 4,
            "componentType" : 5126,
            "count" : 223,
            "type" : "VEC3"
        },
        {
            "bufferView" : 5,
            "componentType" : 5123,
            "count" : 420,
            "type" : "SCALAR"
        },
        {
            "bufferView" : 6,
            "componentType" : 5126,
            "count" : 105,
            "max" : [
                0.41876327991485596,
                0.08552258461713791,
                -0.08676528930664062
            ],
            "min" : [
                -0.29323673248291016,
                -0.09047741442918777,
                -0.2877652645111084
            ],
            "type" : "VEC3"
        },
        {
            "bufferView" : 7,
            "componentType" : 5126,
            "count" : 105,
            "type" : "VEC3"
        },
        {
            "bufferView" : 8,
            "componentType" : 5123,
            "count" : 168,
            "type" : "SCALAR"
        },
        {
            "bufferView" : 9,
            "componentType" : 5126,
            "count" : 7,
            "max" : [
                0.165382981300354,
                0.06252258270978928,
                -0.26385557651519775
            ],
            "min" : [
                -0.1480323076248169,
                0.06252258270978928,
                -0.3489755392074585
            ],
            "type" : "VEC3"
        },
        {
            "bufferView" : 10,
            "componentType" : 5126,
            "count" : 7,
            "type" : "VEC3"
        },
        {
            "bufferView" : 11,
            "componentType" : 5123,
            "count" : 9,
            "type" : "SCALAR"
        },
        {
            "bufferView" : 12,
            "componentType" : 5126,
            "count" : 6,
            "max" : [
                0.165382981300354,
                0.11852259188890457,
                -0.26385557651519775
            ],
            "min" : [
                0.165382981300354,
                0.06252258270978928,
                -0.3489755392074585
            ],
            "type" : "VEC3"
        },
        {
            "bufferView" : 13,
            "componentType" : 5126,
            "count" : 6,
            "type" : "VEC3"
        },
        {
            "bufferView" : 14,
            "componentType" : 5123,
            "count" : 6,
            "type" : "SCALAR"
        },
        {
            "bufferView" : 15,
            "componentType" : 5126,
            "count" : 27,
            "max" : [
                0.09548068046569824,
                -0.01642906665802002,
                0.04235231876373291
            ],
            "min" : [
                -0.2382488250732422,
                -0.01642906665802002,
                -0.04131746292114258
            ],
            "type" : "VEC3"
        },
        {
            "bufferView" : 16,
            "componentType" : 5126,
            "count" : 27,
            "type" : "VEC3"
        },
        {
            "bufferView" : 17,
            "componentType" : 5123,
            "count" : 63,
            "type" : "SCALAR"
        },
        {
            "bufferView" : 18,
            "componentType" : 5126,
            "count" : 136,
            "max" : [
                0.1492244005203247,
                0.039570942521095276,
                0.04235231876373291
            ],
            "min" : [
                0.06363368034362793,
                -0.01642906665802002,
                -0.04276764392852783
            ],
            "type" : "VEC3"
        },
        {
            "bufferView" : 19,
            "componentType" : 5126,
            "count" : 136,
            "type" : "VEC3"
        },
        {
            "bufferView" : 20,
            "componentType" : 5123,
            "count" : 366,
            "type" : "SCALAR"
        },
        {
            "bufferView" : 21,
            "componentType" : 5126,
            "count" : 6,
            "max" : [
                0.2030685693025589,
                0.10212606191635132,
                -1.1056874990463257
            ],
            "min" : [
                0.2030685693025589,
                0.10212606191635132,
                -1.1056874990463257
            ],
            "type" : "VEC3"
        },
        {
            "bufferView" : 22,
            "componentType" : 5126,
            "count" : 6,
            "type" : "VEC3"
        },
        {
            "bufferView" : 23,
            "componentType" : 5126,
            "count" : 6,
            "type" : "VEC2"
        },
        {
            "bufferView" : 24,
            "componentType" : 5123,
            "count" : 18,
            "type" : "SCALAR"
        },
        {
            "bufferView" : 25,
            "componentType" : 5126,
            "count" : 146,
            "max" : [
                0.07833047211170197,
                0.05961711332201958,
                0.10548657178878784
            ],
            "min" : [
                -0.10371403396129608,
                -0.07238288223743439,
                -0.36282896995544434
            ],
            "type" : "VEC3"
        },
        {
            "bufferView" : 26,
            "componentType" : 5126,
            "count" : 146,
            "type" : "VEC3"
        },
        {
            "bufferView" : 27,
            "componentType" : 5126,
            "count" : 146,
            "type" : "VEC2"
        },
        {
            "bufferView" : 28,
            "componentType" : 5123,
            "count" : 318,
            "type" : "SCALAR"
        },
        {
            "bufferView" : 29,
            "componentType" : 5126,
            "count" : 234,
            "max" : [
                0.03736123442649841,
                0.035999998450279236,
                0.05072156712412834
            ],
            "min" : [
                -0.04405048489570618,
                -0.035999998450279236,
                -0.06680579483509064
            ],
            "type" : "VEC3"
        },
        {
            "bufferView" : 30,
            "componentType" : 5126,
            "count" : 234,
            "type" : "VEC3"
        },
        {
            "bufferView" : 31,
            "componentType" : 5123,
            "count" : 498,
            "type" : "SCALAR"
        }
    ],
    "bufferViews" : [
        {
            "buffer" : 0,
            "byteLength" : 23688,
            "byteOffset" : 0
        },
        {
            "buffer" : 0,
            "byteLength" : 23688,
            "byteOffset" : 23688
        },
        {
            "buffer" : 0,
            "byteLength" : 8460,
            "byteOffset" : 47376
        },
        {
            "buffer" : 0,
            "byteLength" : 2676,
            "byteOffset" : 55836
        },
        {
            "buffer" : 0,
            "byteLength" : 2676,
            "byteOffset" : 58512
        },
        {
            "buffer" : 0,
            "byteLength" : 840,
            "byteOffset" : 61188
        },
        {
            "buffer" : 0,
            "byteLength" : 1260,
            "byteOffset" : 62028
        },
        {
            "buffer" : 0,
            "byteLength" : 1260,
            "byteOffset" : 63288
        },
        {
            "buffer" : 0,
            "byteLength" : 336,
            "byteOffset" : 64548
        },
        {
            "buffer" : 0,
            "byteLength" : 84,
            "byteOffset" : 64884
        },
        {
            "buffer" : 0,
            "byteLength" : 84,
            "byteOffset" : 64968
        },
        {
            "buffer" : 0,
            "byteLength" : 18,
            "byteOffset" : 65052
        },
        {
            "buffer" : 0,
            "byteLength" : 72,
            "byteOffset" : 65072
        },
        {
            "buffer" : 0,
            "byteLength" : 72,
            "byteOffset" : 65144
        },
        {
            "buffer" : 0,
            "byteLength" : 12,
            "byteOffset" : 65216
        },
        {
            "buffer" : 0,
            "byteLength" : 324,
            "byteOffset" : 65228
        },
        {
            "buffer" : 0,
            "byteLength" : 324,
            "byteOffset" : 65552
        },
        {
            "buffer" : 0,
            "byteLength" : 126,
            "byteOffset" : 65876
        },
        {
            "buffer" : 0,
            "byteLength" : 1632,
            "byteOffset" : 66004
        },
        {
            "buffer" : 0,
            "byteLength" : 1632,
            "byteOffset" : 67636
        },
        {
            "buffer" : 0,
            "byteLength" : 732,
            "byteOffset" : 69268
        },
        {
            "buffer" : 0,
            "byteLength" : 72,
            "byteOffset" : 70000
        },
        {
            "buffer" : 0,
            "byteLength" : 72,
            "byteOffset" : 70072
        },
        {
            "buffer" : 0,
            "byteLength" : 48,
            "byteOffset" : 70144
        },
        {
            "buffer" : 0,
            "byteLength" : 36,
            "byteOffset" : 70192
        },
        {
            "buffer" : 0,
            "byteLength" : 1752,
            "byteOffset" : 70228
        },
        {
            "buffer" : 0,
            "byteLength" : 1752,
            "byteOffset" : 71980
        },
        {
            "buffer" : 0,
            "byteLength" : 1168,
            "byteOffset" : 73732
        },
        {
            "buffer" : 0,
            "byteLength" : 636,
            "byteOffset" : 74900
        },
        {
            "buffer" : 0,
            "byteLength" : 2808,
            "byteOffset" : 75536
        },
        {
            "buffer" : 0,
            "byteLength" : 2808,
            "byteOffset" : 78344
        },
        {
            "buffer" : 0,
            "byteLength" : 996,
            "byteOffset" : 81152
        }
    ],
    "buffers" : [
        {
            "byteLength" : 82148,
            "uri" : "data:application/octet-stream;base64,"
        }
    ]
}
