{
  "asset": {
    "version": "2.0",
    "generator": "Sketchup glTF Exporter v1.2.6 by Centaur"
  },
  "scene": 0,
  "scenes": [
    {
      "nodes": [
        0
      ]
    }
  ],
  "samplers": [
    {
    }
  ],
  "nodes": [
    {
      "name": "root",
      "mesh": 0
    }
  ],
  "materials": [
    {
      "pbrMetallicRoughness": {
        "baseColorFactor": [
          0.0915,
          0.0915,
          0.0915,
          1.0
        ],
        "metallicFactor": 0.1,
        "roughnessFactor": 0.9
      },
      "name": "Color M06"
    },
    {
      "pbrMetallicRoughness": {
        "baseColorFactor": [
          0.0111,
          0.0111,
          0.0111,
          1.0
        ],
        "metallicFactor": 0.1,
        "roughnessFactor": 0.9
      },
      "name": "Color A01"
    },
    {
      "pbrMetallicRoughness": {
        "baseColorFactor": [
          0.325,
          0.0,
          0.0,
          1.0
        ],
        "metallicFactor": 0.1,
        "roughnessFactor": 0.9
      },
      "name": "Color A05"
    },
    {
      "pbrMetallicRoughness": {
        "baseColorFactor": [
          0.0385,
          0.0104,
          0.0104,
          1.0
        ],
        "metallicFactor": 0.1,
        "roughnessFactor": 0.9
      },
      "name": "Color A06"
    },
    {
      "pbrMetallicRoughness": {
        "baseColorFactor": [
          0.2158,
          0.2158,
          0.2158,
          1.0
        ],
        "metallicFactor": 0.1,
        "roughnessFactor": 0.9
      },
      "name": "Color M05"
    },
    {
      "pbrMetallicRoughness": {
        "baseColorFactor": [
          0.2176,
          0.2176,
          0.2176,
          1.0
        ],
        "metallicFactor": 0.1,
        "roughnessFactor": 0.9
      },
      "name": "default material",
      "doubleSided": true
    },
    {
      "pbrMetallicRoughness": {
        "baseColorFactor": [
          0.0,
          1.0,
          0.0,
          1.0
        ],
        "metallicFactor": 0.1,
        "roughnessFactor": 0.9
      },
      "name": "Color G05"
    },
    {
      "pbrMetallicRoughness": {
        "baseColorFactor": [
          0.0385,
          0.0385,
          0.0385,
          1.0
        ],
        "metallicFactor": 0.1,
        "roughnessFactor": 0.9
      },
      "name": "[Color M07]1"
    }
  ],
  "meshes": [
    {
      "primitives": [
        {
          "attributes": {
            "POSITION": 0,
            "NORMAL": 1
          },
          "indices": 2,
          "mode": 4,
          "material": 0
        },
        {
          "attributes": {
            "POSITION": 0,
            "NORMAL": 1
          },
          "indices": 3,
          "mode": 4,
          "material": 1
        },
        {
          "attributes": {
            "POSITION": 0,
            "NORMAL": 1
          },
          "indices": 4,
          "mode": 4,
          "material": 2
        },
        {
          "attributes": {
            "POSITION": 0,
            "NORMAL": 1
          },
          "indices": 5,
          "mode": 4,
          "material": 3
        },
        {
          "attributes": {
            "POSITION": 0,
            "NORMAL": 1
          },
          "indices": 6,
          "mode": 4,
          "material": 4
        },
        {
          "attributes": {
            "POSITION": 0,
            "NORMAL": 1
          },
          "indices": 7,
          "mode": 4,
          "material": 5
        },
        {
          "attributes": {
            "POSITION": 0,
            "NORMAL": 1
          },
          "indices": 8,
          "mode": 4,
          "material": 6
        },
        {
          "attributes": {
            "POSITION": 0,
            "NORMAL": 1
          },
          "indices": 9,
          "mode": 4,
          "material": 7
        }
      ]
    }
  ],
  "accessors": [
    {
      "bufferView": 0,
      "componentType": 5126,
      "count": 1594,
      "type": "VEC3",
      "min": [
        0.30353846821374336,
        0.37608511840612496,
        -0.0359999999999989
      ],
      "max": [
        2.902448821165296,
        1.8717542639831555,
        0.32000000000000134
      ]
    },
    {
      "bufferView": 1,
      "componentType": 5126,
      "count": 1594,
      "type": "VEC3",
      "min": [
        -1.0,
        -1.0,
        -1.0
      ],
      "max": [
        1.0,
        1.0,
        1.0
      ]
    },
    {
      "bufferView": 2,
      "componentType": 5123,
      "count": 627,
      "type": "SCALAR"
    },
    {
      "bufferView": 2,
      "componentType": 5123,
      "count": 2166,
      "type": "SCALAR",
      "byteOffset": 1254
    },
    {
      "bufferView": 2,
      "componentType": 5123,
      "count": 60,
      "type": "SCALAR",
      "byteOffset": 5586
    },
    {
      "bufferView": 2,
      "componentType": 5123,
      "count": 306,
      "type": "SCALAR",
      "byteOffset": 5706
    },
    {
      "bufferView": 2,
      "componentType": 5123,
      "count": 888,
      "type": "SCALAR",
      "byteOffset": 6318
    },
    {
      "bufferView": 2,
      "componentType": 5123,
      "count": 21,
      "type": "SCALAR",
      "byteOffset": 8094
    },
    {
      "bufferView": 2,
      "componentType": 5123,
      "count": 30,
      "type": "SCALAR",
      "byteOffset": 8136
    },
    {
      "bufferView": 2,
      "componentType": 5123,
      "count": 12,
      "type": "SCALAR",
      "byteOffset": 8196
    }
  ],
  "bufferViews": [
    {
      "buffer": 0,
      "byteLength": 19128,
      "target": 34962,
      "byteStride": 12
    },
    {
      "buffer": 0,
      "byteOffset": 19128,
      "byteLength": 19128,
      "target": 34962,
      "byteStride": 12
    },
    {
      "buffer": 0,
      "byteOffset": 38256,
      "byteLength": 8220,
      "target": 34963
    }
  ],
  "buffers": [
    {
      "uri": "data:application/octet-stream;base64,",
      "byteLength": 46476
    }
  ]
}