{
  "asset": {
    "version": "2.0",
    "generator": "Sketchup glTF Exporter v1.2.6 by Centaur"
  },
  "scene": 0,
  "scenes": [
    {
      "nodes": [
        0
      ]
    }
  ],
  "samplers": [
    {
    }
  ],
  "nodes": [
    {
      "name": "root",
      "mesh": 0
    }
  ],
  "materials": [
    {
      "pbrMetallicRoughness": {
        "baseColorFactor": [
          0.017,
          0.017,
          0.017,
          1.0
        ],
        "metallicFactor": 0.1,
        "roughnessFactor": 0.9
      },
      "name": "Color A08"
    },
    {
      "pbrMetallicRoughness": {
        "baseColorFactor": [
          0.2758,
          0.2758,
          0.2758,
          1.0
        ],
        "metallicFactor": 0.1,
        "roughnessFactor": 0.9
      },
      "name": "Color A01"
    },
    {
      "pbrMetallicRoughness": {
        "baseColorFactor": [
          0.2549,
          0.0846,
          0.0846,
          1.0
        ],
        "metallicFactor": 0.1,
        "roughnessFactor": 0.9
      },
      "name": "Color A02"
    },
    {
      "pbrMetallicRoughness": {
        "baseColorFactor": [
          0.148,
          0.017,
          0.017,
          1.0
        ],
        "metallicFactor": 0.1,
        "roughnessFactor": 0.9
      },
      "name": "[Color A02]1"
    },
    {
      "pbrMetallicRoughness": {
        "baseColorFactor": [
          0.06,
          0.0005,
          0.0005,
          1.0
        ],
        "metallicFactor": 0.1,
        "roughnessFactor": 0.9
      },
      "name": "Color A04"
    }
  ],
  "meshes": [
    {
      "primitives": [
        {
          "attributes": {
            "POSITION": 0,
            "NORMAL": 1
          },
          "indices": 2,
          "mode": 4,
          "material": 0
        },
        {
          "attributes": {
            "POSITION": 0,
            "NORMAL": 1
          },
          "indices": 3,
          "mode": 4,
          "material": 1
        },
        {
          "attributes": {
            "POSITION": 0,
            "NORMAL": 1
          },
          "indices": 4,
          "mode": 4,
          "material": 2
        },
        {
          "attributes": {
            "POSITION": 0,
            "NORMAL": 1
          },
          "indices": 5,
          "mode": 4,
          "material": 3
        },
        {
          "attributes": {
            "POSITION": 0,
            "NORMAL": 1
          },
          "indices": 6,
          "mode": 4,
          "material": 4
        }
      ]
    }
  ],
  "accessors": [
    {
      "bufferView": 0,
      "componentType": 5126,
      "count": 2270,
      "type": "VEC3",
      "min": [
        0.483679200647941,
        0.5680636377495789,
        1.9839944653588507e-16
      ],
      "max": [
        2.1719561067465976,
        1.8927575371377559,
        0.20900000000000035
      ]
    },
    {
      "bufferView": 1,
      "componentType": 5126,
      "count": 2270,
      "type": "VEC3",
      "min": [
        -1.0,
        -1.0,
        -1.0
      ],
      "max": [
        1.0,
        1.0,
        1.0
      ]
    },
    {
      "bufferView": 2,
      "componentType": 5123,
      "count": 4728,
      "type": "SCALAR"
    },
    {
      "bufferView": 2,
      "componentType": 5123,
      "count": 738,
      "type": "SCALAR",
      "byteOffset": 9456
    },
    {
      "bufferView": 2,
      "componentType": 5123,
      "count": 168,
      "type": "SCALAR",
      "byteOffset": 10932
    },
    {
      "bufferView": 2,
      "componentType": 5123,
      "count": 72,
      "type": "SCALAR",
      "byteOffset": 11268
    },
    {
      "bufferView": 2,
      "componentType": 5123,
      "count": 216,
      "type": "SCALAR",
      "byteOffset": 11412
    }
  ],
  "bufferViews": [
    {
      "buffer": 0,
      "byteLength": 27240,
      "target": 34962,
      "byteStride": 12
    },
    {
      "buffer": 0,
      "byteOffset": 27240,
      "byteLength": 27240,
      "target": 34962,
      "byteStride": 12
    },
    {
      "buffer": 0,
      "byteOffset": 54480,
      "byteLength": 11844,
      "target": 34963
    }
  ],
  "buffers": [
    {
      "uri": "data:application/octet-stream;base64,",
      "byteLength": 66324
    }
  ]
}