{
  "asset": {
    "version": "2.0",
    "generator": "Sketchup glTF Exporter v1.2.6 by Centaur"
  },
  "scene": 0,
  "scenes": [
    {
      "nodes": [
        0
      ]
    }
  ],
  "samplers": [
    {
    }
  ],
  "nodes": [
    {
      "name": "root",
      "mesh": 0
    }
  ],
  "materials": [
    {
      "pbrMetallicRoughness": {
        "baseColorTexture": {
          "index": 0
        },
        "roughnessFactor": 0.1
      },
      "name": "Metal Silver"
    },
    {
      "pbrMetallicRoughness": {
        "baseColorTexture": {
          "index": 1
        },
        "roughnessFactor": 0.1
      },
      "name": "Metal Aluminum Anodized"
    },
    {
      "pbrMetallicRoughness": {
        "baseColorTexture": {
          "index": 2
        },
        "metallicFactor": 0.1,
        "roughnessFactor": 0.9
      },
      "name": "Quartz Light Brown"
    }
  ],
  "images": [
    {
      "bufferView": 0,
      "mimeType": "image/jpeg"
    },
    {
      "bufferView": 1,
      "mimeType": "image/jpeg"
    },
    {
      "bufferView": 2,
      "mimeType": "image/jpeg"
    }
  ],
  "textures": [
    {
      "source": 0,
      "sampler": 0
    },
    {
      "source": 1,
      "sampler": 0
    },
    {
      "source": 2,
      "sampler": 0
    }
  ],
  "meshes": [
    {
      "primitives": [
        {
          "attributes": {
            "POSITION": 0,
            "NORMAL": 1,
            "TEXCOORD_0": 2
          },
          "indices": 3,
          "mode": 4,
          "material": 0
        },
        {
          "attributes": {
            "POSITION": 0,
            "NORMAL": 1,
            "TEXCOORD_0": 2
          },
          "indices": 4,
          "mode": 4,
          "material": 1
        },
        {
          "attributes": {
            "POSITION": 0,
            "NORMAL": 1,
            "TEXCOORD_0": 2
          },
          "indices": 5,
          "mode": 4,
          "material": 2
        }
      ]
    }
  ],
  "accessors": [
    {
      "bufferView": 3,
      "componentType": 5126,
      "count": 1132,
      "type": "VEC3",
      "min": [
        -1.1424701550126536e-05,
        0.003999999999999996,
        -0.018381911294500206
      ],
      "max": [
        0.1200118413404289,
        0.6,
        0.018381911294500234
      ]
    },
    {
      "bufferView": 4,
      "componentType": 5126,
      "count": 1132,
      "type": "VEC3",
      "min": [
        -1.0,
        -1.0,
        -1.0
      ],
      "max": [
        1.0,
        1.0,
        1.0
      ]
    },
    {
      "bufferView": 5,
      "componentType": 5126,
      "count": 1132,
      "type": "VEC2",
      "min": [
        -0.43227495562867435,
        -0.9576540604672703
      ],
      "max": [
        0.4322749556286744,
        1.0717010476498192
      ]
    },
    {
      "bufferView": 6,
      "componentType": 5123,
      "count": 378,
      "type": "SCALAR"
    },
    {
      "bufferView": 6,
      "componentType": 5123,
      "count": 1068,
      "type": "SCALAR",
      "byteOffset": 756
    },
    {
      "bufferView": 6,
      "componentType": 5123,
      "count": 144,
      "type": "SCALAR",
      "byteOffset": 2892
    }
  ],
  "bufferViews": [
    {
      "buffer": 0,
      "byteLength": 29602
    },
    {
      "buffer": 0,
      "byteOffset": 29602,
      "byteLength": 3847
    },
    {
      "buffer": 0,
      "byteOffset": 33449,
      "byteLength": 49319
    },
    {
      "buffer": 0,
      "byteOffset": 82776,
      "byteLength": 13584,
      "target": 34962,
      "byteStride": 12
    },
    {
      "buffer": 0,
      "byteOffset": 96360,
      "byteLength": 13584,
      "target": 34962,
      "byteStride": 12
    },
    {
      "buffer": 0,
      "byteOffset": 109944,
      "byteLength": 9056,
      "target": 34962,
      "byteStride": 8
    },
    {
      "buffer": 0,
      "byteOffset": 119000,
      "byteLength": 3180,
      "target": 34963
    }
  ],
  "buffers": [
    {
      "uri": "data:application/octet-stream;base64,",
      "byteLength": 122180
    }
  ]
}