{
    "asset" : {
        "generator" : "Khronos glTF Blender I/O v0.9.36",
        "version" : "2.0"
    },
    "scene" : 0,
    "scenes" : [
        {
            "name" : "Scene",
            "nodes" : [
                0
            ]
        }
    ],
    "nodes" : [
        {
            "mesh" : 0,
            "name" : "Sphere",
            "rotation" : [
                0.7071068286895752,
                0,
                0,
                0.7071067094802856
            ]
        }
    ],
    "materials" : [
        {
            "alphaCutoff" : 0.9676258563995361,
            "alphaMode" : "MASK",
            "doubleSided" : true,
            "name" : "Material.003",
            "pbrMetallicRoughness" : {
                "baseColorFactor" : [
                    0.8000000715255737,
                    0.0054990011267364025,
                    0,
                    1
                ],
                "metallicFactor" : 1,
                "roughnessFactor" : 0.17889907956123352
            }
        }
    ],
    "meshes" : [
        {
            "name" : "Sphere.004",
            "primitives" : [
                {
                    "attributes" : {
                        "POSITION" : 0,
                        "NORMAL" : 1,
                        "TEXCOORD_0" : 2
                    },
                    "indices" : 3,
                    "material" : 0
                }
            ]
        }
    ],
    "accessors" : [
        {
            "bufferView" : 0,
            "componentType" : 5126,
            "count" : 3444,
            "max" : [
                1.000000238418579,
                1.0000003576278687,
                1
            ],
            "min" : [
                -1,
                -1,
                -2.0050220489501953
            ],
            "type" : "VEC3"
        },
        {
            "bufferView" : 1,
            "componentType" : 5126,
            "count" : 3444,
            "type" : "VEC3"
        },
        {
            "bufferView" : 2,
            "componentType" : 5126,
            "count" : 3444,
            "type" : "VEC2"
        },
        {
            "bufferView" : 3,
            "componentType" : 5123,
            "count" : 3492,
            "type" : "SCALAR"
        }
    ],
    "bufferViews" : [
        {
            "buffer" : 0,
            "byteLength" : 41328,
            "byteOffset" : 0
        },
        {
            "buffer" : 0,
            "byteLength" : 41328,
            "byteOffset" : 41328
        },
        {
            "buffer" : 0,
            "byteLength" : 27552,
            "byteOffset" : 82656
        },
        {
            "buffer" : 0,
            "byteLength" : 6984,
            "byteOffset" : 110208
        }
    ],
    "buffers" : [
        {
            "byteLength" : 117192,
            "uri" : "data:application/octet-stream;base64,"
        }
    ]
}
