{
    "asset" : {
        "generator" : "Khronos glTF Blender I/O v0.9.36",
        "version" : "2.0"
    },
    "scene" : 0,
    "scenes" : [
        {
            "name" : "Scene",
            "nodes" : [
                0
            ]
        }
    ],
    "nodes" : [
        {
            "mesh" : 0,
            "name" : "Cube.001",
            "rotation" : [
                1,
                0,
                0,
                -4.371138828673793e-08
            ],
            "scale" : [
                1,
                1,
                0.47210729122161865
            ],
            "translation" : [
                0,
                0,
                1.311267375946045
            ]
        }
    ],
    "materials" : [
        {
            "doubleSided" : true,
            "name" : "Material.004",
            "pbrMetallicRoughness" : {
                "baseColorFactor" : [
                    0,
                    0,
                    0,
                    1
                ],
                "metallicFactor" : 1,
                "roughnessFactor" : 0.5
            }
        },
        {
            "doubleSided" : true,
            "name" : "Material.003",
            "pbrMetallicRoughness" : {
                "baseColorFactor" : [
                    0.8002467155456543,
                    0.8032516837120056,
                    1,
                    1
                ],
                "metallicFactor" : 1,
                "roughnessFactor" : 0.2889908254146576
            }
        },
        {
            "doubleSided" : true,
            "name" : "Material.001",
            "pbrMetallicRoughness" : {
                "baseColorFactor" : [
                    0.006868783384561539,
                    0.121318019926548,
                    0.8000000715255737,
                    1
                ],
                "metallicFactor" : 0,
                "roughnessFactor" : 0
            }
        },
        {
            "doubleSided" : true,
            "name" : "Material.002",
            "pbrMetallicRoughness" : {
                "baseColorFactor" : [
                    0.8000000715255737,
                    0.006421584635972977,
                    0,
                    1
                ],
                "metallicFactor" : 1,
                "roughnessFactor" : 0.6192660331726074
            }
        }
    ],
    "meshes" : [
        {
            "name" : "Cube.002",
            "primitives" : [
                {
                    "attributes" : {
                        "POSITION" : 0,
                        "NORMAL" : 1,
                        "TEXCOORD_0" : 2
                    },
                    "indices" : 3,
                    "material" : 0
                },
                {
                    "attributes" : {
                        "POSITION" : 4,
                        "NORMAL" : 5,
                        "TEXCOORD_0" : 6
                    },
                    "indices" : 7,
                    "material" : 1
                },
                {
                    "attributes" : {
                        "POSITION" : 8,
                        "NORMAL" : 9,
                        "TEXCOORD_0" : 10
                    },
                    "indices" : 11,
                    "material" : 2
                },
                {
                    "attributes" : {
                        "POSITION" : 12,
                        "NORMAL" : 13,
                        "TEXCOORD_0" : 14
                    },
                    "indices" : 15,
                    "material" : 3
                }
            ]
        }
    ],
    "accessors" : [
        {
            "bufferView" : 0,
            "componentType" : 5126,
            "count" : 48,
            "max" : [
                0.0006805509328842163,
                0.1810031235218048,
                7.326755523681641
            ],
            "min" : [
                -0.37834781408309937,
                -0.18100282549858093,
                -1.968108892440796
            ],
            "type" : "VEC3"
        },
        {
            "bufferView" : 1,
            "componentType" : 5126,
            "count" : 48,
            "type" : "VEC3"
        },
        {
            "bufferView" : 2,
            "componentType" : 5126,
            "count" : 48,
            "type" : "VEC2"
        },
        {
            "bufferView" : 3,
            "componentType" : 5123,
            "count" : 72,
            "type" : "SCALAR"
        },
        {
            "bufferView" : 4,
            "componentType" : 5126,
            "count" : 192,
            "max" : [
                1,
                1.0000001192092896,
                4.8956403732299805
            ],
            "min" : [
                -1,
                -0.9999998807907104,
                0.6593148708343506
            ],
            "type" : "VEC3"
        },
        {
            "bufferView" : 5,
            "componentType" : 5126,
            "count" : 192,
            "type" : "VEC3"
        },
        {
            "bufferView" : 6,
            "componentType" : 5126,
            "count" : 192,
            "type" : "VEC2"
        },
        {
            "bufferView" : 7,
            "componentType" : 5123,
            "count" : 372,
            "type" : "SCALAR"
        },
        {
            "bufferView" : 8,
            "componentType" : 5126,
            "count" : 1984,
            "max" : [
                -0.0026378631591796875,
                1.0000001192092896,
                4.8956403732299805
            ],
            "min" : [
                -2.0026378631591797,
                -0.9999998807907104,
                0.6593141555786133
            ],
            "type" : "VEC3"
        },
        {
            "bufferView" : 9,
            "componentType" : 5126,
            "count" : 1984,
            "type" : "VEC3"
        },
        {
            "bufferView" : 10,
            "componentType" : 5126,
            "count" : 1984,
            "type" : "VEC2"
        },
        {
            "bufferView" : 11,
            "componentType" : 5123,
            "count" : 2880,
            "type" : "SCALAR"
        },
        {
            "bufferView" : 12,
            "componentType" : 5126,
            "count" : 2304,
            "max" : [
                1.5461208820343018,
                0.4070335626602173,
                3.301632881164551
            ],
            "min" : [
                -0.18723630905151367,
                -1.3289800882339478,
                2.505364179611206
            ],
            "type" : "VEC3"
        },
        {
            "bufferView" : 13,
            "componentType" : 5126,
            "count" : 2304,
            "type" : "VEC3"
        },
        {
            "bufferView" : 14,
            "componentType" : 5126,
            "count" : 2304,
            "type" : "VEC2"
        },
        {
            "bufferView" : 15,
            "componentType" : 5123,
            "count" : 3456,
            "type" : "SCALAR"
        }
    ],
    "bufferViews" : [
        {
            "buffer" : 0,
            "byteLength" : 576,
            "byteOffset" : 0
        },
        {
            "buffer" : 0,
            "byteLength" : 576,
            "byteOffset" : 576
        },
        {
            "buffer" : 0,
            "byteLength" : 384,
            "byteOffset" : 1152
        },
        {
            "buffer" : 0,
            "byteLength" : 144,
            "byteOffset" : 1536
        },
        {
            "buffer" : 0,
            "byteLength" : 2304,
            "byteOffset" : 1680
        },
        {
            "buffer" : 0,
            "byteLength" : 2304,
            "byteOffset" : 3984
        },
        {
            "buffer" : 0,
            "byteLength" : 1536,
            "byteOffset" : 6288
        },
        {
            "buffer" : 0,
            "byteLength" : 744,
            "byteOffset" : 7824
        },
        {
            "buffer" : 0,
            "byteLength" : 23808,
            "byteOffset" : 8568
        },
        {
            "buffer" : 0,
            "byteLength" : 23808,
            "byteOffset" : 32376
        },
        {
            "buffer" : 0,
            "byteLength" : 15872,
            "byteOffset" : 56184
        },
        {
            "buffer" : 0,
            "byteLength" : 5760,
            "byteOffset" : 72056
        },
        {
            "buffer" : 0,
            "byteLength" : 27648,
            "byteOffset" : 77816
        },
        {
            "buffer" : 0,
            "byteLength" : 27648,
            "byteOffset" : 105464
        },
        {
            "buffer" : 0,
            "byteLength" : 18432,
            "byteOffset" : 133112
        },
        {
            "buffer" : 0,
            "byteLength" : 6912,
            "byteOffset" : 151544
        }
    ],
    "buffers" : [
        {
            "byteLength" : 158456,
            "uri" : "data:application/octet-stream;base64,"
        }
    ]
}
