{
    "asset" : {
        "generator" : "Khronos glTF Blender I/O v1.1.46",
        "version" : "2.0"
    },
    "scene" : 0,
    "scenes" : [
        {
            "name" : "Scene",
            "nodes" : [
                0
            ]
        }
    ],
    "nodes" : [
        {
            "mesh" : 0,
            "name" : "Cylinder.001",
            "rotation" : [
                0.7071067690849304,
                0,
                0,
                0.7071067690849304
            ],
            "scale" : [
                0.17526793479919434,
                0.17526793479919434,
                0.17526793479919434
            ],
            "translation" : [
                0.2962675392627716,
                3.0860116481781006,
                -1.0521131753921509
            ]
        }
    ],
    "materials" : [
        {
            "doubleSided" : true,
            "emissiveFactor" : [
                0,
                0,
                0
            ],
            "name" : "Material.001",
            "pbrMetallicRoughness" : {
                "baseColorTexture" : {
                    "index" : 0,
                    "texCoord" : 0
                },
                "metallicFactor" : 0,
                "roughnessFactor" : 0.5
            }
        },
        {
            "doubleSided" : true,
            "emissiveFactor" : [
                0,
                0,
                0
            ],
            "name" : "Material",
            "pbrMetallicRoughness" : {
                "baseColorFactor" : [
                    0.00910151656717062,
                    0.10652033239603043,
                    0,
                    1
                ],
                "metallicFactor" : 0,
                "roughnessFactor" : 0.5
            }
        }
    ],
    "meshes" : [
        {
            "name" : "Cylinder.001",
            "primitives" : [
                {
                    "attributes" : {
                        "POSITION" : 0,
                        "NORMAL" : 1,
                        "TEXCOORD_0" : 2
                    },
                    "indices" : 3,
                    "material" : 0
                },
                {
                    "attributes" : {
                        "POSITION" : 4,
                        "NORMAL" : 5,
                        "TEXCOORD_0" : 6
                    },
                    "indices" : 7,
                    "material" : 1
                }
            ]
        }
    ],
    "textures" : [
        {
            "source" : 0
        }
    ],
    "images" : [
        {
            "bufferView" : 4,
            "mimeType" : "image/png",
            "name" : "Material"
        }
    ],
    "accessors" : [
        {
            "bufferView" : 0,
            "componentType" : 5126,
            "count" : 3987,
            "max" : [
                3.660423994064331,
                11.046491622924805,
                1.9413340091705322
            ],
            "min" : [
                -7.041162490844727,
                -1.5478432178497314,
                -5.032373905181885
            ],
            "type" : "VEC3"
        },
        {
            "bufferView" : 1,
            "componentType" : 5126,
            "count" : 3987,
            "type" : "VEC3"
        },
        {
            "bufferView" : 2,
            "componentType" : 5126,
            "count" : 3987,
            "type" : "VEC2"
        },
        {
            "bufferView" : 3,
            "componentType" : 5123,
            "count" : 5673,
            "type" : "SCALAR"
        },
        {
            "bufferView" : 5,
            "componentType" : 5126,
            "count" : 96,
            "max" : [
                0.886259913444519,
                -0.5262405872344971,
                0.8052535057067871
            ],
            "min" : [
                -0.8052535057067871,
                -1.2540587186813354,
                -1.4794801473617554
            ],
            "type" : "VEC3"
        },
        {
            "bufferView" : 6,
            "componentType" : 5126,
            "count" : 96,
            "type" : "VEC3"
        },
        {
            "bufferView" : 7,
            "componentType" : 5126,
            "count" : 96,
            "type" : "VEC2"
        },
        {
            "bufferView" : 8,
            "componentType" : 5123,
            "count" : 270,
            "type" : "SCALAR"
        }
    ],
    "bufferViews" : [
        {
            "buffer" : 0,
            "byteLength" : 47844,
            "byteOffset" : 0
        },
        {
            "buffer" : 0,
            "byteLength" : 47844,
            "byteOffset" : 47844
        },
        {
            "buffer" : 0,
            "byteLength" : 31896,
            "byteOffset" : 95688
        },
        {
            "buffer" : 0,
            "byteLength" : 11346,
            "byteOffset" : 127584
        },
        {
            "buffer" : 0,
            "byteLength" : 20567,
            "byteOffset" : 138932
        },
        {
            "buffer" : 0,
            "byteLength" : 1152,
            "byteOffset" : 159500
        },
        {
            "buffer" : 0,
            "byteLength" : 1152,
            "byteOffset" : 160652
        },
        {
            "buffer" : 0,
            "byteLength" : 768,
            "byteOffset" : 161804
        },
        {
            "buffer" : 0,
            "byteLength" : 540,
            "byteOffset" : 162572
        }
    ],
    "buffers" : [
        {
            "byteLength" : 163112,
            "uri" : "data:application/octet-stream;base64,"
        }
    ]
}
