{
    "asset" : {
        "generator" : "Khronos glTF Blender I/O v0.9.36",
        "version" : "2.0"
    },
    "scene" : 0,
    "scenes" : [
        {
            "name" : "Scene",
            "nodes" : [
                2,
                3,
                5,
                7
            ]
        }
    ],
    "nodes" : [
        {
            "mesh" : 0,
            "name" : "body_middle",
            "rotation" : [
                0,
                -0.7071068286895752,
                0,
                0.7071067094802856
            ],
            "translation" : [
                0,
                0.9982221722602844,
                0
            ]
        },
        {
            "mesh" : 1,
            "name" : "body_up",
            "rotation" : [
                0,
                0.7075049877166748,
                0,
                0.7067084312438965
            ],
            "translation" : [
                0,
                2.0089211463928223,
                0
            ]
        },
        {
            "children" : [
                0,
                1
            ],
            "mesh" : 2,
            "name" : "body_down",
            "rotation" : [
                0,
                0.6878922581672668,
                0,
                -0.7258127927780151
            ],
            "translation" : [
                0,
                -0.9982221722602844,
                0
            ]
        },
        {
            "mesh" : 3,
            "name" : "head",
            "rotation" : [
                0,
                0.7071067690849304,
                0,
                0.7071067690849304
            ],
            "scale" : [
                0.8120992183685303,
                0.8120992183685303,
                0.8120992183685303
            ],
            "translation" : [
                0,
                2.924412488937378,
                0
            ]
        },
        {
            "mesh" : 4,
            "name" : "hand_right",
            "translation" : [
                4.374435901641846,
                0.13208985328674316,
                -0.08092784881591797
            ]
        },
        {
            "children" : [
                4
            ],
            "mesh" : 5,
            "name" : "hand_left",
            "scale" : [
                0.3675508201122284,
                0.3675508201122284,
                0.3675508201122284
            ],
            "translation" : [
                -0.7241793870925903,
                1.4038163423538208,
                -1.5440622568130493
            ]
        },
        {
            "mesh" : 6,
            "name" : "foot_right",
            "rotation" : [
                0.021085446700453758,
                0,
                0,
                0.9997776746749878
            ],
            "scale" : [
                1,
                0.9999175071716309,
                0.9999492764472961
            ],
            "translation" : [
                2.559650421142578,
                -0.06576088070869446,
                0.019921720027923584
            ]
        },
        {
            "children" : [
                6
            ],
            "mesh" : 7,
            "name" : "foot_left",
            "rotation" : [
                0.0012571965344250202,
                0,
                0,
                1
            ],
            "scale" : [
                0.42427995800971985,
                0.42427995800971985,
                0.5580000281333923
            ],
            "translation" : [
                -0.5789169073104858,
                -3.2495553493499756,
                -0.10322047770023346
            ]
        }
    ],
    "materials" : [
        {
            "doubleSided" : true,
            "name" : "Material.007",
            "pbrMetallicRoughness" : {
                "baseColorTexture" : {
                    "index" : 0,
                    "texCoord" : 0
                },
                "metallicFactor" : 0.6146789789199829,
                "roughnessFactor" : 0.6926609873771667
            }
        },
        {
            "doubleSided" : true,
            "name" : "Material.006",
            "pbrMetallicRoughness" : {
                "baseColorFactor" : [
                    0.0015176334418356419,
                    0.0018211622955277562,
                    0.0159962959587574,
                    1
                ],
                "metallicFactor" : 0.6146789789199829,
                "roughnessFactor" : 0.6926609873771667
            }
        },
        {
            "doubleSided" : true,
            "name" : "Material.005",
            "pbrMetallicRoughness" : {
                "baseColorTexture" : {
                    "index" : 1,
                    "texCoord" : 0
                },
                "metallicFactor" : 0.1834862381219864,
                "roughnessFactor" : 0.07798165082931519
            }
        },
        {
            "doubleSided" : true,
            "name" : "Material.002",
            "pbrMetallicRoughness" : {
                "baseColorFactor" : [
                    1,
                    0.7592437863349915,
                    0.4718833565711975,
                    1
                ],
                "metallicFactor" : 0.7614678740501404,
                "roughnessFactor" : 0.7247706651687622
            }
        },
        {
            "doubleSided" : true,
            "name" : "Material.001",
            "pbrMetallicRoughness" : {
                "baseColorFactor" : [
                    0,
                    0,
                    0,
                    1
                ],
                "metallicFactor" : 0.43119266629219055,
                "roughnessFactor" : 0.7385321259498596
            }
        }
    ],
    "meshes" : [
        {
            "name" : "Cylinder",
            "primitives" : [
                {
                    "attributes" : {
                        "POSITION" : 0,
                        "NORMAL" : 1,
                        "TEXCOORD_0" : 2
                    },
                    "indices" : 3,
                    "material" : 0
                }
            ]
        },
        {
            "name" : "Sphere",
            "primitives" : [
                {
                    "attributes" : {
                        "POSITION" : 4,
                        "NORMAL" : 5,
                        "TEXCOORD_0" : 6
                    },
                    "indices" : 7,
                    "material" : 1
                }
            ]
        },
        {
            "name" : "Sphere.001",
            "primitives" : [
                {
                    "attributes" : {
                        "POSITION" : 8,
                        "NORMAL" : 9,
                        "TEXCOORD_0" : 10
                    },
                    "indices" : 11,
                    "material" : 1
                }
            ]
        },
        {
            "name" : "Sphere.002",
            "primitives" : [
                {
                    "attributes" : {
                        "POSITION" : 12,
                        "NORMAL" : 13,
                        "TEXCOORD_0" : 14
                    },
                    "indices" : 15,
                    "material" : 2
                }
            ]
        },
        {
            "name" : "Sphere.003",
            "primitives" : [
                {
                    "attributes" : {
                        "POSITION" : 16,
                        "NORMAL" : 17,
                        "TEXCOORD_0" : 18
                    },
                    "indices" : 19,
                    "material" : 3
                }
            ]
        },
        {
            "name" : "Sphere.004",
            "primitives" : [
                {
                    "attributes" : {
                        "POSITION" : 20,
                        "NORMAL" : 21,
                        "TEXCOORD_0" : 22
                    },
                    "indices" : 19,
                    "material" : 3
                }
            ]
        },
        {
            "name" : "Sphere.006",
            "primitives" : [
                {
                    "attributes" : {
                        "POSITION" : 23,
                        "NORMAL" : 24,
                        "TEXCOORD_0" : 25
                    },
                    "indices" : 26,
                    "material" : 4
                }
            ]
        },
        {
            "name" : "Sphere.005",
            "primitives" : [
                {
                    "attributes" : {
                        "POSITION" : 27,
                        "NORMAL" : 28,
                        "TEXCOORD_0" : 29
                    },
                    "indices" : 30,
                    "material" : 4
                }
            ]
        }
    ],
    "textures" : [
        {
            "source" : 0
        },
        {
            "source" : 1
        }
    ],
    "images" : [
        {
            "bufferView" : 4,
            "mimeType" : "image/png",
            "name" : "BODY"
        },
        {
            "bufferView" : 17,
            "mimeType" : "image/png",
            "name" : "head"
        }
    ],
    "accessors" : [
        {
            "bufferView" : 0,
            "componentType" : 5126,
            "count" : 192,
            "max" : [
                1,
                1,
                1
            ],
            "min" : [
                -1,
                -1,
                -1
            ],
            "type" : "VEC3"
        },
        {
            "bufferView" : 1,
            "componentType" : 5126,
            "count" : 192,
            "type" : "VEC3"
        },
        {
            "bufferView" : 2,
            "componentType" : 5126,
            "count" : 192,
            "type" : "VEC2"
        },
        {
            "bufferView" : 3,
            "componentType" : 5123,
            "count" : 372,
            "type" : "SCALAR"
        },
        {
            "bufferView" : 5,
            "componentType" : 5126,
            "count" : 1984,
            "max" : [
                1.000000238418579,
                1,
                1.0000003576278687
            ],
            "min" : [
                -0.9999998211860657,
                -1,
                -1
            ],
            "type" : "VEC3"
        },
        {
            "bufferView" : 6,
            "componentType" : 5126,
            "count" : 1984,
            "type" : "VEC3"
        },
        {
            "bufferView" : 7,
            "componentType" : 5126,
            "count" : 1984,
            "type" : "VEC2"
        },
        {
            "bufferView" : 8,
            "componentType" : 5123,
            "count" : 2880,
            "type" : "SCALAR"
        },
        {
            "bufferView" : 9,
            "componentType" : 5126,
            "count" : 1984,
            "max" : [
                1.000000238418579,
                1,
                1.0000003576278687
            ],
            "min" : [
                -0.9999998211860657,
                -1,
                -1
            ],
            "type" : "VEC3"
        },
        {
            "bufferView" : 10,
            "componentType" : 5126,
            "count" : 1984,
            "type" : "VEC3"
        },
        {
            "bufferView" : 11,
            "componentType" : 5126,
            "count" : 1984,
            "type" : "VEC2"
        },
        {
            "bufferView" : 12,
            "componentType" : 5123,
            "count" : 2880,
            "type" : "SCALAR"
        },
        {
            "bufferView" : 13,
            "componentType" : 5126,
            "count" : 1976,
            "max" : [
                1.000000238418579,
                1,
                1.0000003576278687
            ],
            "min" : [
                -0.9999998211860657,
                -1,
                -1
            ],
            "type" : "VEC3"
        },
        {
            "bufferView" : 14,
            "componentType" : 5126,
            "count" : 1976,
            "type" : "VEC3"
        },
        {
            "bufferView" : 15,
            "componentType" : 5126,
            "count" : 1976,
            "type" : "VEC2"
        },
        {
            "bufferView" : 16,
            "componentType" : 5123,
            "count" : 2874,
            "type" : "SCALAR"
        },
        {
            "bufferView" : 18,
            "componentType" : 5126,
            "count" : 1984,
            "max" : [
                1.000000238418579,
                1,
                1.0000003576278687
            ],
            "min" : [
                -0.9999998211860657,
                -1,
                -1
            ],
            "type" : "VEC3"
        },
        {
            "bufferView" : 19,
            "componentType" : 5126,
            "count" : 1984,
            "type" : "VEC3"
        },
        {
            "bufferView" : 20,
            "componentType" : 5126,
            "count" : 1984,
            "type" : "VEC2"
        },
        {
            "bufferView" : 21,
            "componentType" : 5123,
            "count" : 2880,
            "type" : "SCALAR"
        },
        {
            "bufferView" : 22,
            "componentType" : 5126,
            "count" : 1984,
            "max" : [
                1.000000238418579,
                1,
                1.0000003576278687
            ],
            "min" : [
                -0.9999998211860657,
                -1,
                -1
            ],
            "type" : "VEC3"
        },
        {
            "bufferView" : 23,
            "componentType" : 5126,
            "count" : 1984,
            "type" : "VEC3"
        },
        {
            "bufferView" : 24,
            "componentType" : 5126,
            "count" : 1984,
            "type" : "VEC2"
        },
        {
            "bufferView" : 25,
            "componentType" : 5126,
            "count" : 1984,
            "max" : [
                0.9931020736694336,
                0.9754472374916077,
                1.0053642988204956
            ],
            "min" : [
                -1.0023117065429688,
                -0.5188342332839966,
                -1.0803141593933105
            ],
            "type" : "VEC3"
        },
        {
            "bufferView" : 26,
            "componentType" : 5126,
            "count" : 1984,
            "type" : "VEC3"
        },
        {
            "bufferView" : 27,
            "componentType" : 5126,
            "count" : 1984,
            "type" : "VEC2"
        },
        {
            "bufferView" : 28,
            "componentType" : 5123,
            "count" : 2880,
            "type" : "SCALAR"
        },
        {
            "bufferView" : 29,
            "componentType" : 5126,
            "count" : 1984,
            "max" : [
                1.001851201057434,
                0.9662478566169739,
                1.0020769834518433
            ],
            "min" : [
                -0.9986944198608398,
                -0.5247212648391724,
                -1.067734718322754
            ],
            "type" : "VEC3"
        },
        {
            "bufferView" : 30,
            "componentType" : 5126,
            "count" : 1984,
            "type" : "VEC3"
        },
        {
            "bufferView" : 31,
            "componentType" : 5126,
            "count" : 1984,
            "type" : "VEC2"
        },
        {
            "bufferView" : 32,
            "componentType" : 5123,
            "count" : 2880,
            "type" : "SCALAR"
        }
    ],
    "bufferViews" : [
        {
            "buffer" : 0,
            "byteLength" : 2304,
            "byteOffset" : 0
        },
        {
            "buffer" : 0,
            "byteLength" : 2304,
            "byteOffset" : 2304
        },
        {
            "buffer" : 0,
            "byteLength" : 1536,
            "byteOffset" : 4608
        },
        {
            "buffer" : 0,
            "byteLength" : 744,
            "byteOffset" : 6144
        },
        {
            "buffer" : 0,
            "byteLength" : 36520,
            "byteOffset" : 6888
        },
        {
            "buffer" : 0,
            "byteLength" : 23808,
            "byteOffset" : 43408
        },
        {
            "buffer" : 0,
            "byteLength" : 23808,
            "byteOffset" : 67216
        },
        {
            "buffer" : 0,
            "byteLength" : 15872,
            "byteOffset" : 91024
        },
        {
            "buffer" : 0,
            "byteLength" : 5760,
            "byteOffset" : 106896
        },
        {
            "buffer" : 0,
            "byteLength" : 23808,
            "byteOffset" : 112656
        },
        {
            "buffer" : 0,
            "byteLength" : 23808,
            "byteOffset" : 136464
        },
        {
            "buffer" : 0,
            "byteLength" : 15872,
            "byteOffset" : 160272
        },
        {
            "buffer" : 0,
            "byteLength" : 5760,
            "byteOffset" : 176144
        },
        {
            "buffer" : 0,
            "byteLength" : 23712,
            "byteOffset" : 181904
        },
        {
            "buffer" : 0,
            "byteLength" : 23712,
            "byteOffset" : 205616
        },
        {
            "buffer" : 0,
            "byteLength" : 15808,
            "byteOffset" : 229328
        },
        {
            "buffer" : 0,
            "byteLength" : 5748,
            "byteOffset" : 245136
        },
        {
            "buffer" : 0,
            "byteLength" : 28825,
            "byteOffset" : 250884
        },
        {
            "buffer" : 0,
            "byteLength" : 23808,
            "byteOffset" : 279712
        },
        {
            "buffer" : 0,
            "byteLength" : 23808,
            "byteOffset" : 303520
        },
        {
            "buffer" : 0,
            "byteLength" : 15872,
            "byteOffset" : 327328
        },
        {
            "buffer" : 0,
            "byteLength" : 5760,
            "byteOffset" : 343200
        },
        {
            "buffer" : 0,
            "byteLength" : 23808,
            "byteOffset" : 348960
        },
        {
            "buffer" : 0,
            "byteLength" : 23808,
            "byteOffset" : 372768
        },
        {
            "buffer" : 0,
            "byteLength" : 15872,
            "byteOffset" : 396576
        },
        {
            "buffer" : 0,
            "byteLength" : 23808,
            "byteOffset" : 412448
        },
        {
            "buffer" : 0,
            "byteLength" : 23808,
            "byteOffset" : 436256
        },
        {
            "buffer" : 0,
            "byteLength" : 15872,
            "byteOffset" : 460064
        },
        {
            "buffer" : 0,
            "byteLength" : 5760,
            "byteOffset" : 475936
        },
        {
            "buffer" : 0,
            "byteLength" : 23808,
            "byteOffset" : 481696
        },
        {
            "buffer" : 0,
            "byteLength" : 23808,
            "byteOffset" : 505504
        },
        {
            "buffer" : 0,
            "byteLength" : 15872,
            "byteOffset" : 529312
        },
        {
            "buffer" : 0,
            "byteLength" : 5760,
            "byteOffset" : 545184
        }
    ],
    "buffers" : [
        {
            "byteLength" : 550944,
            "uri" : "data:application/octet-stream;base64,"
        }
    ]
}
